<?xml version="1.0" encoding="utf-8"?>
<!-- Generator: Adobe Illustrator 23.0.1, SVG Export Plug-In . SVG Version: 6.00 Build 0)  -->
<svg version="1.1" id="bbd2572f-7b08-4c5d-b64e-2e695104dd4a"
	 xmlns="http://www.w3.org/2000/svg" xmlns:xlink="http://www.w3.org/1999/xlink" x="0px" y="0px" viewBox="0 0 1041.3 733.5"
	 style="enable-background:new 0 0 1041.3 733.5;" xml:space="preserve">
<style type="text/css">
	.st0{opacity:0.2;fill:#FAA41A;enable-background:new    ;}
	.st1{fill:#F2F2F2;}
	.st2{opacity:0.1;fill:#FAA41A;enable-background:new    ;}
	.st3{fill:#3F3D56;}
	.st4{opacity:0.1;enable-background:new    ;}
	.st5{fill:#FAA41A;}
	.st6{fill:none;stroke:#FAA41A;stroke-width:6;stroke-miterlimit:10;}
	.st7{fill:#FBBEBE;}
	.st8{fill:#565171;}
	.st9{fill:none;stroke:#3F3D56;stroke-width:4;stroke-miterlimit:10;}
</style>
<title>conference speaker</title>
<path class="st0" d="M357.9,428.4c1.1-2.2,2.9-3.9,4.3-5.8c-0.2,0.2-0.4,0.3-0.7,0.5c-1.1,0.5-2.1,1.1-3,1.9
	c-0.5,0.8-0.9,1.6-1.1,2.5l-2.5,9.9c0.5-0.6,1-1.2,1.5-1.9C356.4,433.2,356.9,430.7,357.9,428.4z"/>
<path class="st1" d="M598.7,435.1c-0.2,1.1-0.5,2.2-1,3.2c0,4.2-0.5,8.4-1.7,12.4c-0.5,1.7-0.8,3.4-1,5.2c-2.4,16.1-4.6,33-0.6,48.6
	c0.3-0.9,0.8-1.8,1.5-2.5c2.7-3.3,3.7-7.5,4.5-11.7c4.2-21.8,3-44.1,2-66.3c-0.6-0.7-1.4-1.2-2.2-1.6c0,1,0,1.9-0.1,2.9
	C599.8,428.6,599.3,431.9,598.7,435.1z"/>
<path class="st0" d="M458.4,428.5c0-1.3-0.3-2.5-0.8-3.7c-0.5-1-1.2-1.9-1.9-2.7l-2.2-2.5c-1.1,26.1-3.4,52.3,1.4,77.9
	c0.8,4.1,1.8,8.4,4.5,11.7c0.7,0.7,1.2,1.6,1.5,2.5c4-15.6,1.8-32.5-0.6-48.6c-0.2-1.8-0.6-3.5-1-5.2c-1.8-6.6-2.2-13.4-1.2-20.2
	C458.6,434.6,458.7,431.6,458.4,428.5z"/>
<path class="st0" d="M470.8,373.3c2.9,4.8,4.7,10.4,6.3,15.8l0.7,2.3c-0.3-7.9-0.5-15.8-0.5-23.7c-1.6,1.4-3.1,2.8-4.7,4.1
	L470.8,373.3z"/>
<path class="st1" d="M494.1,639.9c0.4-5.5,0-11.1-1.3-16.5c-0.9-3.4-2.2-6.8-2.4-10.3c0-2.4,0.3-4.7,0.9-7
	c4.1-20.9,5.9-42.9-0.3-63.3c-1.7-5.5-3.9-10.7-5.6-16.2c-0.8,2-1.7,4-2.8,5.9c-0.5-1.8-1.7-3.2-3.4-4c0,1,0,1.9-0.1,2.9
	c-0.3,3.3-0.8,6.5-1.4,9.7c-0.2,1.3-0.6,2.5-1.2,3.6c-0.8,1.1-1.9,2.1-3.2,2.7c0.6,1.3,1.2,2.6,1.7,3.9l-4.2,1.3
	c2.7,6,0.5,12.8-1,19.2c-5.2,22.2-0.5,45.9-3,68.3L494.1,639.9z"/>
<path class="st0" d="M478.9,322.4c1.1-2.2,2.8-3.9,4.3-5.8c-0.2,0.2-0.4,0.3-0.7,0.5c-1.1,0.5-2.1,1.1-3,1.9
	c-0.5,0.8-0.9,1.6-1.1,2.5l-2.5,9.9c0.5-0.6,1-1.2,1.5-1.9C477.4,327.2,477.9,324.7,478.9,322.4z"/>
<path class="st1" d="M579.4,322.5c0-1.3-0.3-2.5-0.8-3.7c-0.5-1-1.2-1.9-1.9-2.7l-2.2-2.5c-1.1,25.7-3.4,51.5,1.2,76.7
	c0.8-2.7,1.6-5.4,2.4-8.2c1.2-4.5,2.8-8.9,4.8-13.1c-0.5-4-1.1-8.1-1.6-12c-0.2-1.8-0.6-3.5-1.1-5.2c-1.8-6.6-2.2-13.4-1.2-20.1
	C579.6,328.7,579.7,325.6,579.4,322.5z"/>
<path class="st1" d="M535.8,519.1l-3.4,120.5l9-0.1c-1.6-14.7-2.3-29.4-2.2-44.2c0-4.3,0.2-8.6-0.7-12.8c-0.6-2.9-1.7-5.7-2.3-8.7
	c-0.6-3.5-0.8-7.1-0.7-10.7L535.8,519.1z"/>
<path class="st1" d="M458.5,519.1c0.1-0.3,0.3-0.7,0.4-1c0.5-1.2,0.9-2.5,1.3-3.7l-0.1,0.1c-0.8,1.3-1.7,2.5-2.5,3.8
	C457.9,518.6,458.2,518.8,458.5,519.1z"/>
<path class="st0" d="M186.4,384.5c0-1.3-0.3-2.5-0.8-3.7c-0.5-1-1.2-1.9-1.9-2.7l-2.2-2.5c-1.1,26.1-3.4,52.3,1.4,77.9
	c0.8,4.1,1.8,8.4,4.5,11.7c0.7,0.7,1.2,1.6,1.5,2.5c4-15.6,1.8-32.5-0.6-48.6c-0.2-1.8-0.5-3.5-1-5.2c-1.8-6.6-2.2-13.4-1.2-20.1
	C186.6,390.6,186.7,387.6,186.4,384.5z"/>
<path class="st0" d="M142.8,581.1c-0.6,20.9-1.2,41.8-1.8,62.7l4.3-0.1c-0.6-2.7-1.6-5.2-2.1-7.9c-0.6-3.5-0.8-7.1-0.7-10.7
	L142.8,581.1z"/>
<path class="st0" d="M207.1,641.5c-1.3-0.6-2.4-1.5-3.2-2.7c-0.6-1.1-1.1-2.4-1.2-3.7c-0.6-3.2-1.1-6.5-1.4-9.7
	c-0.1-1-0.1-1.9-0.1-2.9c-1.7,0.8-2.9,2.2-3.4,4c-2.9-5.2-4.8-10.8-5.6-16.7c-0.3,1-0.6,2.1-1,3.1c-2.1,6.2-5.1,12.2-5.7,18.7
	c-0.3,3.9,0.1,7.9,1,11.7l19.9-0.2C206.7,642.5,206.9,642,207.1,641.5z"/>
<path class="st0" d="M363.4,629.2c-1.4-6-2.4-12-2.9-18.1c-1.6-14.7-3.2-29.3-4.8-44c0-0.4-0.1-0.8-0.1-1.2
	c-0.1,0.2-0.1,0.4-0.2,0.6c-1.2,3.5-3.6,6.5-6,9.5s-5.4,5.9-8.9,5.1c-1.4-0.5-2.7-1.3-3.8-2.3l-8-6.9c-1.6-1.4-3.1-2.7-4.7-4.1
	c-0.1,9.7-0.3,19.3-0.8,28.9c-0.2,3-0.4,6.2-1.9,8.9c3,9.2,4.6,18.7,4.9,28.3c0.1,2.6,0,5.2-0.1,7.8l23.4-0.3h0.1l17.6-0.2
	C366,637.3,364.5,633.3,363.4,629.2z"/>
<path class="st1" d="M323.8,529.7c0.5,0.6,1,1.2,1.5,1.9l-2.5-9.9c-0.2-0.9-0.5-1.8-1.1-2.5c-0.9-0.8-1.9-1.4-3-1.9
	c-0.2-0.2-0.5-0.3-0.7-0.5c1.5,1.9,3.3,3.6,4.3,5.8C323.3,524.7,323.8,527.2,323.8,529.7z"/>
<path class="st1" d="M352.8,485.8c0.6,7,1,13.9,1.4,20.9c0.4,7,0.7,13.8,1.1,20.6c0.8-5.3,2.1-10.6,3.7-15.7
	c-1.4-2.7-1.7-5.8-1.9-8.9c-0.5-9.6-0.7-19.3-0.8-28.9c-1.5,1.4-3.1,2.7-4.6,4C352.2,480.4,352.6,483.1,352.8,485.8z"/>
<path class="st0" d="M220,557c-2.4,16.1-4.6,33-0.6,48.6c0.3-0.9,0.8-1.8,1.5-2.5c2.7-3.3,3.7-7.5,4.5-11.7
	c4.9-25.6,2.5-51.8,1.4-77.9l-2.1,2.5c-0.8,0.8-1.5,1.7-2,2.7c-0.5,1.2-0.8,2.5-0.8,3.8c-0.2,3.1-0.1,6.1,0.3,9.2
	c1,6.7,0.6,13.5-1.2,20.1C220.5,553.5,220.2,555.2,220,557z"/>
<path class="st1" d="M581.6,639l7.8-0.1c-4.2-24.1,1.8-49.9-3.8-74c-0.9-3.8-2-7.7-2.3-11.5c-2,5.3-4.3,10.5-4.8,16.2
	c-0.9,9.7,3.7,19,5.4,28.7c2.3,13.3-0.8,26.8-2.2,40.2C581.6,638.6,581.6,638.8,581.6,639z"/>
<path class="st0" d="M851.1,626.9c-9.1-27.1,0-57.2-6.6-85c-1.5-6.4-3.8-13.3-1-19.2l-4.2-1.3c0.6-1.3,1.2-2.6,1.7-3.9
	c-0.8-0.4-1.6-0.9-2.2-1.5l-3.1,28.2c-0.5,6.1-1.5,12.2-2.9,18.1c-1.7,6.7-4.5,13-6.5,19.5c-5.4,17.6-4.8,36.3-1.9,54.6l30-0.3
	C853.4,633,852.2,630,851.1,626.9z"/>
<path class="st1" d="M736.1,447.4c0.4,1.2,0.8,2.5,1.3,3.7c0.1,0.3,0.3,0.7,0.4,1c0.3-0.3,0.6-0.5,0.9-0.8c-0.9-1.2-1.8-2.5-2.5-3.8
	C736.2,447.5,736.2,447.5,736.1,447.4z"/>
<path class="st0" d="M859.4,467.5c3.1-16.1,3.3-32.5,2.7-48.9c-1.5,1.3-3.5,1.9-5.5,1.6h-0.2c-0.2,2.6-0.7,5.2-1.5,7.7
	c-0.5,1.7-0.8,3.4-1,5.2c-2.4,16.1-4.6,33-0.6,48.6c0.3-0.9,0.8-1.8,1.5-2.5C857.5,475.9,858.6,471.6,859.4,467.5z"/>
<path class="st1" d="M414.7,640.8c0-5.2,0-10.5,0.1-15.7c-0.2,5.2-0.3,10.5-0.4,15.7H414.7z"/>
<path class="st2" d="M1037.9,207c-0.7-3.8-1.5-7.5-2.4-11.1c-9.7-39.2-32.4-70.5-74-87.5c-3.6-1.5-7.3-2.8-11.1-4
	c-8.8-2.8-17.7-4.9-26.8-6.4c-87.2-14.6-160.6-7.6-226.7,5.5c-3.7,0.7-7.4,1.5-11.1,2.3c-92.7,19.6-171.6,49.9-255.9,47.3
	c-3.7-0.1-7.4-0.3-11.1-0.5c-36.7-2.4-74.6-11.4-115.2-30.6c-48-22.6-96.7-15-140.7,11.9c-24.8,15.2-48.1,36.5-68.9,62l-0.1,0.1
	c-2.9,3.6-5.8,7.3-8.6,11C17.7,296.8-19.9,431.2,10.9,535.4c1.1,3.8,2.3,7.5,3.6,11.1c8.9,25.4,22.1,48.7,40.3,68.9
	c10.5,11.7,24.1,20.2,39.1,24.8c2.6,0.8,5.2,1.5,7.9,2c0.8-12.7-0.1-25.3-3.8-37.4c-2-6.6-4.8-12.9-6.6-19.5c-1.4-6-2.4-12-2.9-18.1
	c-1.6-14.7-3.2-29.3-4.8-44c-1-9-2-18.1-1.7-27.2c0.3-9.6,1.9-19.2,4.9-28.3c-1.4-2.7-1.7-5.8-1.9-8.9c-0.5-9.6-0.7-19.3-0.8-28.9
	c-1.6,1.4-3.1,2.8-4.7,4.1l-8,7c-1.1,1.1-2.4,1.9-3.8,2.3c-3.5,0.9-6.6-2.3-8.9-5.1s-4.8-5.9-6-9.5c-0.9-3.3-1.3-6.7-1.1-10.2
	c0.1-4.4,0.3-8.8,0.5-13.1l1.9-36.6c0.4-7,0.7-13.9,1.4-20.9c0.4-5,1.1-10.1,3.7-14.4c4.8-8,15.2-10.8,24.6-10.1
	c-0.5-0.9-0.5-2-0.1-3c0.6-0.9,1.4-1.6,2.4-2l13.9-7.6c1-0.6,2.1-1,3.3-1.1c0.6,0,1.2,0.1,1.8,0.4l2.7-1.9c0.6-0.5,1.3-0.8,2-1.1
	c0.9-0.2,1.9-0.2,2.7,0.1c0.7-1.4,1.1-2.8,1.1-4.3c-0.1-1.9-0.5-3.7-1.2-5.5c-6.5-4.9-10.4-12.6-10.4-20.7c-3-1.7-6.9-2.6-8.1-6.2
	c-0.8-2.4,0.2-5.1-0.2-7.6c-0.7-0.7-1.2-1.5-1.5-2.3c-0.9-2.5,0.3-5.3-0.2-7.9c-0.3-1.4-1-2.8-0.7-4.2c0.3-1,0.8-1.9,1.6-2.7
	l9.8-11.6c2.2-2.6,4.4-5.2,7.4-6.7c7.1-3.7,15.7,0,23.7,0c2.7,0,5.5-0.4,8,0.5c1.8,0.7,3.5,1.8,4.9,3.1l11,9c3.7,3,7.7,6.6,8.1,11.3
	c0.1,1.4-0.1,2.9-0.6,4.2c1.3,1.6,2.1,3.6,2.3,5.7c0.2,3.3-1.4,6.5-3.2,9.2c-2.8,4.1-6.1,7.8-10,10.8c-0.9,4.7-3.1,9.2-6.3,12.7
	c0.7,3.5,1.7,6.9,2.8,10.3c0,0.1,0.1,0.1,0.1,0.2c0.9,0.1,1.8,0.4,2.6,0.9c0.8,0.6,1.5,1.3,2.2,2c0.3-0.5,0.9-1,1.5-1.2
	c1.5-0.6,3.1,0.1,4.6,0.7c4.4,2,8.9,4.1,12.5,7.3c1.3,1.2,2.4,2.6,3.3,4.1c5-0.7,10.1,0.5,14.4,3.3c7.6,5.2,10.7,14.6,13.3,23.4
	c2,6.6,3.9,13.1,5.9,19.7c2.6,8.6,5.2,17.3,5.8,26.3c0.5,8.2-0.6,16.4-1.7,24.5c-1.5,11.2,2.1,23.5,2.1,34.9c0,2.9,0,5.9-0.1,8.8
	c4.1-2.5,8.9-3.5,13.6-2.9c0.9-1.5,2-2.9,3.3-4.1c3.6-3.2,8.1-5.3,12.5-7.3c1.5-0.7,3.1-1.3,4.6-0.7c0.6,0.2,1.1,0.7,1.5,1.2
	c0.6-0.7,1.4-1.4,2.2-2c0.8-0.5,1.7-0.9,2.6-0.9c0-0.1,0-0.1,0.1-0.2c1.2-3.4,2.1-6.8,2.8-10.3c-3.2-3.6-5.4-8-6.3-12.7
	c-3.9-3.1-7.2-6.7-10-10.8c-1.8-2.8-3.4-5.9-3.2-9.2c0.2-2.1,1-4,2.3-5.7c-0.5-1.4-0.7-2.8-0.6-4.2c0.4-4.8,4.4-8.3,8-11.3l11-9
	c1.4-1.3,3.1-2.4,4.9-3.1c2.5-0.9,5.3-0.5,8-0.5c8,0,16.6-3.6,23.7,0c3,1.5,5.2,4.2,7.4,6.7l10,11.6c0.7,0.7,1.3,1.7,1.6,2.7
	c0.3,1.4-0.5,2.8-0.7,4.2c-0.5,2.6,0.7,5.4-0.2,7.9c-0.3,0.9-0.8,1.7-1.5,2.3c-0.3,2.5,0.6,5.2-0.2,7.6c-1.2,3.5-5.1,4.5-8.1,6.2
	c-0.1,8.2-4,15.8-10.5,20.7c-0.7,1.7-1.1,3.6-1.2,5.5c0.1,1.5,0.5,3,1.1,4.3c0.9-0.3,1.8-0.4,2.7-0.1c0.7,0.2,1.4,0.6,2,1.1l2.7,1.9
	c0.6-0.3,1.2-0.4,1.8-0.4c1.2,0.1,2.3,0.5,3.3,1.2l13.9,7.4c0.6,0.3,1.2,0.7,1.7,1.1c0.1-2.7,0.2-5.4,0.4-8.1l1.9-36.6
	c0.4-7,0.7-13.9,1.4-20.9c0.5-5,1.1-10.1,3.7-14.4c4.8-8,15.2-10.8,24.6-10.1c-0.5-0.9-0.5-2-0.1-3c0.6-0.9,1.4-1.6,2.4-2l13.6-7.5
	c1-0.6,2.1-1,3.3-1.1c0.6,0,1.2,0.1,1.8,0.4l2.7-1.9c0.6-0.5,1.3-0.8,2-1.1c0.9-0.2,1.9-0.2,2.7,0.1c0.7-1.4,1.1-2.8,1.1-4.3
	c-0.1-1.9-0.5-3.7-1.2-5.5c-6.5-4.9-10.4-12.6-10.5-20.7c-3-1.7-6.9-2.6-8.1-6.2c-0.8-2.4,0.2-5.1-0.2-7.6c-0.7-0.7-1.2-1.5-1.5-2.3
	c-0.9-2.5,0.3-5.3-0.2-7.9c-0.3-1.1-0.6-2.3-0.8-3.4c-1.1,2.1-1.9,4.2-2.5,6.5c-1.4,5.7-1.2,11.6-2,17.4c-0.3,2-0.9,4.1-2.6,5.2
	c-1.3,0.8-3,0.8-4.4,1.3c-2.4,1-3.7,3.6-4,6.1s0.1,5.1,0.1,7.7c0,6.7-3.2,13.6-9,16.9c-7.7,4.3-17.2,1.5-25.5-1.5
	c3.7-1.3,7-3.6,9.5-6.6l-9.2-1.8c5.3-2.5,10.2-5.7,14.6-9.6c1.6-1.3,2.9-3,3.7-4.9c1-2.8,0.1-6,1-8.8c1.5-4.8,7.4-6.6,10.4-10.7
	c2.6-3.5,2.7-8.3,2.7-12.7V281c0-4.8,0.3-10.4,4.2-13.3c4.3-3.3,10.4-1.4,15.8-1.5c5.7,0,11.1-2.4,16.8-3c5.3-0.6,14.2,3.1,14.1,7.4
	c3,0.5,6,0.8,9,0.9c2.7,0,5.5-0.4,8,0.5c1.8,0.7,3.5,1.8,4.9,3.1l11,9c3.7,3,7.7,6.6,8,11.3c0.1,1.4-0.1,2.9-0.6,4.2
	c1.3,1.6,2.1,3.6,2.3,5.7c0.2,3.3-1.3,6.5-3.2,9.2c-2.8,4.1-6.1,7.8-10,10.8c-0.9,4.7-3.1,9.2-6.3,12.7c0.7,3.5,1.7,6.9,2.8,10.3
	c0,0.1,0.1,0.1,0.1,0.2c0.9,0.1,1.8,0.4,2.6,0.9c0.8,0.6,1.5,1.3,2.2,2c0.3-0.5,0.9-1,1.5-1.2c1.5-0.6,3.1,0.1,4.6,0.7
	c3.9,1.6,7.6,3.7,11,6.1c0-0.2,0-0.4,0-0.6c0.1-4.4,0.3-8.8,0.5-13.1l1.9-36.6c0.4-7,0.7-13.9,1.3-20.9c0.5-5,1.1-10.1,3.7-14.4
	c4.8-8,15.2-10.8,24.6-10.1c-0.5-0.9-0.5-2-0.1-3c0.6-0.9,1.4-1.6,2.4-2l14-7.6c1-0.6,2.1-1,3.3-1.1c0.6,0,1.2,0.1,1.8,0.4l2.7-1.9
	c0.6-0.5,1.3-0.8,2-1.1c0.9-0.2,1.9-0.2,2.7,0.1c0.7-1.4,1.1-2.8,1.2-4.3c-0.1-1.9-0.5-3.7-1.2-5.5c-6.5-4.9-10.4-12.6-10.5-20.7
	c-3-1.7-6.9-2.6-8.1-6.2c-0.8-2.4,0.2-5.1-0.2-7.6c-0.7-0.7-1.2-1.5-1.5-2.3c-0.9-2.5,0.3-5.3-0.2-7.9c-0.3-1.4-1-2.8-0.7-4.2
	c0.3-1,0.8-1.9,1.6-2.7l9.8-11.6c2.2-2.6,4.4-5.2,7.4-6.7c7.1-3.7,15.7,0,23.7,0c2.7,0,5.5-0.4,8,0.4c1.8,0.7,3.5,1.8,4.9,3.1l11,9
	c3.7,3,7.7,6.6,8,11.3c0.1,1.4-0.1,2.9-0.6,4.2c1.3,1.6,2.1,3.6,2.3,5.7c0.2,3.3-1.3,6.5-3.2,9.2c-2.8,4.1-6.1,7.8-10,10.8
	c-0.9,4.7-3.1,9.2-6.3,12.7c0.7,3.5,1.7,6.9,2.8,10.3c0,0.1,0.1,0.1,0.1,0.2c0.9,0.1,1.8,0.4,2.6,0.9c0.8,0.6,1.5,1.3,2.2,2
	c0.3-0.5,0.9-1,1.5-1.2c1.5-0.6,3.1,0.1,4.6,0.7c4.4,2,8.9,4.1,12.5,7.3c1.3,1.2,2.4,2.6,3.3,4.1c5-0.7,10.1,0.5,14.3,3.3
	c7.6,5.2,10.7,14.6,13.3,23.4c2,6.6,3.9,13.1,5.9,19.7c2.6,8.6,5.2,17.3,5.8,26.3c0.5,7.6-0.4,15.3-1.5,22.9
	c0.2-0.3,0.5-0.5,0.8-0.8c3.6-3.2,8.1-5.3,12.5-7.3c1.4-0.7,3.1-1.3,4.6-0.7c0.6,0.2,1.1,0.7,1.5,1.2c0.6-0.7,1.4-1.4,2.2-2
	c0.8-0.5,1.7-0.9,2.6-0.9c0-0.1,0-0.1,0.1-0.2c1.2-3.4,2.1-6.8,2.8-10.3c-3.2-3.6-5.4-8-6.3-12.7c-3.9-3.1-7.2-6.7-10-10.8
	c-1.8-2.8-3.4-5.9-3.2-9.2c0.2-2.1,1-4,2.3-5.7c-0.5-1.4-0.7-2.8-0.6-4.2c0.4-4.8,4.3-8.3,8-11.3l11-9c1.4-1.3,3.1-2.4,4.9-3.1
	c2.5-0.9,5.3-0.5,8-0.5c3-0.1,6-0.4,9-0.9c-0.2-4.2,8.8-8,14.1-7.4c5.7,0.6,11.1,3,16.8,3c5.4,0,11.5-1.8,15.8,1.5
	c3.8,2.9,4.2,8.5,4.2,13.3v16.8c0,4.4,0.1,9.2,2.7,12.7c2.9,3.9,8.3,5.7,10.2,10c2.3-5.8,5.3-11.2,10.4-14.7c4.2-2.8,9.3-4,14.3-3.3
	c0.9-1.5,2-2.9,3.3-4.1c3.6-3.2,8.1-5.3,12.5-7.3c1.4-0.7,3.1-1.3,4.6-0.7c0.6,0.2,1.1,0.7,1.5,1.2c0.6-0.7,1.4-1.4,2.2-2
	c0.8-0.5,1.7-0.9,2.6-0.9c0-0.1,0-0.1,0.1-0.2c1.2-3.4,2.1-6.8,2.8-10.3c-3.2-3.6-5.4-8-6.3-12.7c-3.9-3.1-7.2-6.7-10-10.8
	c-1.8-2.8-3.4-5.9-3.2-9.2c0.2-2.1,1-4,2.3-5.7c-0.5-1.4-0.7-2.8-0.6-4.2c0.4-4.8,4.3-8.3,8-11.3l11-9c1.4-1.3,3.1-2.4,4.9-3.1
	c2.5-0.9,5.3-0.5,8-0.5c3-0.1,6-0.4,9-0.9c-0.2-4.2,8.8-8,14.1-7.4c5.7,0.6,11.1,3,16.8,3c5.4,0,11.5-1.8,15.8,1.5
	c3.8,2.9,4.2,8.5,4.2,13.3v16.8c0,4.4,0.1,9.2,2.7,12.7c3,4,8.9,5.9,10.4,10.7c0.9,2.8,0,6,1,8.8c0.9,2,2.2,3.7,4,5
	c2.2,2,4.6,3.9,7.2,5.5c0.4-1.3,1.1-2.6,1.9-3.7c-0.5-1.4-0.7-2.8-0.6-4.2c0.4-4.8,4.3-8.3,8-11.3l11-9c1.4-1.3,3.1-2.4,4.9-3.1
	c2.5-0.9,5.3-0.5,8-0.5c8,0,16.6-3.6,23.7,0c3,1.5,5.2,4.2,7.4,6.7l9.8,11.6c0.7,0.7,1.3,1.7,1.6,2.7c0.3,1.4-0.4,2.8-0.7,4.2
	c-0.5,2.6,0.7,5.4-0.2,7.9c-0.3,0.9-0.8,1.7-1.5,2.3c-0.3,2.5,0.7,5.2-0.2,7.6c-1.2,3.5-5.1,4.5-8.1,6.2c-0.1,8.2-4,15.8-10.4,20.7
	c-0.7,1.7-1.1,3.6-1.2,5.5c0.1,1.5,0.5,3,1.2,4.3c0.9-0.3,1.8-0.4,2.7-0.1c0.7,0.2,1.4,0.6,2,1.1l2.7,1.9c0.6-0.3,1.2-0.4,1.8-0.4
	c1.2,0.1,2.3,0.5,3.3,1.1l13.9,7.4c1,0.4,1.8,1.1,2.4,2c0.4,1,0.4,2.1-0.1,3c9.4-0.7,19.8,2.1,24.6,10.1c2.6,4.3,3.2,9.4,3.7,14.4
	c0.6,7,1,13.9,1.3,20.9l1.9,36.6c0.2,4.4,0.4,8.8,0.5,13.2c0.2,3.4-0.1,6.9-1.1,10.2c-1.2,3.5-3.6,6.5-6,9.5s-5.4,5.9-8.9,5.1
	c-1.4-0.5-2.7-1.3-3.8-2.3l-8.1-6.9c-1.6-1.4-3.2-2.7-4.7-4.1c-0.1,9.7-0.3,19.3-0.8,28.9c-0.2,3-0.4,6.2-1.8,8.9
	c3,9.2,4.6,18.7,4.9,28.3c0.1,7.9-0.4,15.7-1.3,23.5c0.8-1.8,1.7-3.6,2.5-5.4C1004.8,435.1,1055,301.3,1037.9,207z"/>
<path class="st0" d="M85.6,383.6l-2.6,9.9c0.5-0.6,1-1.2,1.5-1.9c0-2.5,0.4-4.9,1.4-7.2c1.1-2.2,2.9-3.9,4.3-5.8
	c-0.2,0.2-0.4,0.3-0.7,0.5c-1.1,0.5-2.1,1.1-3,1.9C86.1,381.9,85.7,382.7,85.6,383.6z"/>
<path class="st1" d="M595.1,507.4c0.4,1.2,0.8,2.5,1.3,3.7c0.1,0.3,0.3,0.7,0.4,1c0.3-0.3,0.6-0.5,0.9-0.8c-0.9-1.2-1.8-2.5-2.5-3.8
	C595.2,507.5,595.2,507.5,595.1,507.4z"/>
<path class="st0" d="M681.4,313.7c-0.1,8.2-4,15.8-10.4,20.7c-0.7,1.7-1.1,3.6-1.2,5.5c0.1,1.5,0.5,3,1.2,4.3
	c0.9-0.3,1.8-0.4,2.7-0.1c0.7,0.2,1.4,0.6,2,1.1l2.7,1.9c0.6-0.3,1.2-0.4,1.8-0.4c1.2,0.1,2.3,0.5,3.3,1.1l13.9,7.4
	c1,0.4,1.8,1.1,2.4,2c0.4,1,0.4,2.1-0.1,3c3-0.2,6-0.1,8.9,0.4c1.1-5.6,2.5-11.1,4.2-16.5c-3.3-3.8-5.1-8.7-5.1-13.7
	c0-2.6,0.4-5.1,0.1-7.7c-0.3-2.6-1.7-5.2-4-6.1c-1.4-0.6-3.1-0.5-4.4-1.3c-1.7-1.1-2.3-3.2-2.6-5.2c-0.9-5.8-0.6-11.7-2-17.4
	c-0.6-2.3-1.4-4.4-2.5-6.5c-0.2,1.2-0.4,2.3-0.8,3.4c-0.5,2.6,0.7,5.4-0.2,7.9c-0.3,0.9-0.8,1.7-1.5,2.3c-0.3,2.5,0.7,5.2-0.2,7.6
	C688.2,311,684.4,312,681.4,313.7z"/>
<path class="st0" d="M735.9,396c-2.4,16.1-4.6,33-0.6,48.6c0.3-0.9,0.8-1.8,1.5-2.5c2.7-3.3,3.7-7.5,4.5-11.7
	c4.9-25.6,2.5-51.8,1.4-77.9l-2.1,2.5c-0.8,0.8-1.5,1.7-2,2.7c-0.5,1.2-0.8,2.5-0.8,3.8c-0.2,3.1-0.1,6.1,0.3,9.2
	c1,6.7,0.6,13.5-1.2,20.1C736.5,392.5,736.2,394.2,735.9,396z"/>
<path class="st0" d="M720.7,478.8c-1.4,1.2-3.3,1.7-5.1,1.3c-1.4-0.5-2.7-1.3-3.8-2.3l-8-6.9c-1.6-1.4-3.2-2.7-4.7-4.1
	c-0.1,9.7-0.3,19.3-0.8,28.9c-0.2,3-0.4,6.2-1.8,8.9c3,9.2,4.6,18.7,4.9,28.3c0.2,9.1-0.7,18.2-1.7,27.2c-1.6,14.7-3.2,29.3-4.8,44
	c-0.5,6.1-1.5,12.2-2.9,18.1c-1.4,5.3-3.5,10.4-5.2,15.6l10.2-0.1l13-0.1h1.6l22-0.2c0,0,0,0,0-0.1c1.7-9.6,6.3-19,5.4-28.7
	c-0.6-6.5-3.6-12.5-5.7-18.7c-9.1-27.1,0-57.2-6.6-85c-1.5-6.4-3.8-13.3-1-19.2l-4.2-1.3c0.6-1.3,1.2-2.6,1.7-3.9
	C722.3,480,721.5,479.4,720.7,478.8z"/>
<path class="st1" d="M640.5,618c0,6.8,0.1,13.5,0.1,20.3h0.4L640.5,618z"/>
<path class="st0" d="M781.5,558.1l0.3,44.1c0.1,3.6-0.1,7.1-0.7,10.7c-0.6,2.9-1.7,5.7-2.3,8.7c-0.9,4.2-0.8,8.5-0.7,12.8
	c0,0.9,0,1.7,0,2.6l5.7-0.1C783,610.5,782.2,584.3,781.5,558.1z"/>
<path class="st0" d="M822.4,253.7c-0.1,8.2-4,15.8-10.4,20.7c-0.7,1.7-1.1,3.6-1.2,5.5c0.1,1.5,0.5,3,1.2,4.3
	c0.9-0.3,1.8-0.4,2.7-0.1c0.7,0.2,1.4,0.6,2,1.1l2.7,1.9c0.6-0.3,1.2-0.4,1.8-0.4c1.2,0.1,2.3,0.5,3.3,1.1l13.9,7.4
	c1,0.4,1.8,1.1,2.4,2c0.4,1,0.4,2.1-0.1,3c9.4-0.7,19.8,2.1,24.6,10.1c2.6,4.3,3.2,9.4,3.7,14.4c0.1,0.9,0.2,1.8,0.2,2.7
	c3.4-2.8,7.5-4.7,11.6-6.6c1.4-0.7,3.1-1.3,4.6-0.7c0.6,0.2,1.1,0.7,1.5,1.2c0.6-0.7,1.4-1.4,2.2-2c0.8-0.5,1.7-0.9,2.6-0.9
	c0-0.1,0-0.1,0.1-0.2c1.2-3.4,2.1-6.8,2.8-10.3c-3.2-3.6-5.4-8-6.3-12.7c-3-2.4-5.8-5.2-8.1-8.3c-7.5,2.4-15.6,4.1-22.3,0.4
	c-5.8-3.3-9-10.2-9-16.9c0-2.6,0.4-5.1,0.1-7.7c-0.3-2.6-1.7-5.2-4-6.1c-1.4-0.6-3.1-0.5-4.4-1.3c-1.7-1.1-2.3-3.2-2.6-5.2
	c-0.9-5.8-0.6-11.7-2-17.4c-0.6-2.3-1.4-4.4-2.5-6.5c-0.2,1.2-0.4,2.3-0.8,3.4c-0.5,2.6,0.7,5.4-0.2,7.9c-0.3,0.9-0.8,1.7-1.5,2.3
	c-0.3,2.5,0.7,5.2-0.2,7.6C829.2,251,825.4,252,822.4,253.7z"/>
<path class="st3" d="M253.4,435.8h551.4c10.4,0,18.9,8.5,18.9,18.9l0,0V521l0,0H234.5l0,0v-66.3
	C234.5,444.3,242.9,435.8,253.4,435.8L253.4,435.8z"/>
<path class="st4" d="M253.4,435.8h551.4c10.4,0,18.9,8.5,18.9,18.9l0,0V521l0,0H234.5l0,0v-66.3
	C234.5,444.3,242.9,435.8,253.4,435.8L253.4,435.8z"/>
<polygon class="st3" points="703.8,513.1 703.8,636.8 680,637.1 678.3,637.1 657.2,637.3 656.5,637.3 641.7,637.5 614.8,637.8 
	526.3,638.7 513.9,638.9 489.5,639.1 488.4,639.1 467.6,639.4 410.1,640 396.5,640.1 354.4,640.6 354.4,513.1 "/>
<polygon class="st4" points="703.8,513.1 703.8,636.8 680,637.1 678.3,637.1 657.2,637.3 656.5,637.3 641.7,637.5 614.8,637.8 
	526.3,638.7 513.9,638.9 489.5,639.1 488.4,639.1 467.6,639.4 410.1,640 396.5,640.1 354.4,640.6 354.4,513.1 "/>
<path class="st3" d="M234.5,512.5h589.2l0,0V527c0,10.8-8.7,19.5-19.5,19.5l0,0h-549c-11.4,0-20.7-9.3-20.7-20.7l0,0L234.5,512.5
	L234.5,512.5z"/>
<ellipse class="st5" cx="412.8" cy="520.4" rx="42" ry="9.1"/>
<path class="st6" d="M409.4,521.4l-0.8-43.5c-0.2-9.7,0.2-20.7,7.4-27.2c4.6-4.1,11.4-5.9,14.3-11.3c1.6-3,1.6-6.5,1.6-9.8
	c0-19.7,0-39.5-0.1-59.2"/>
<path class="st5" d="M428.7,351.8h3.5c4.4,0,8,3.6,8,8v21.7c0,4.4-3.6,8-8,8h-3.5c-4.4,0-8-3.6-8-8v-21.7
	C420.7,355.4,424.3,351.8,428.7,351.8z"/>
<path class="st7" d="M585.4,452.4c-6.4-7.5-13.2-14.5-20.1-21.6l-13.9-14.4l-12.6-13l-60.5-62.8c-7.4-7.6-15.1-15.5-25-19.3
	s-22.8-2.1-28.8,6.7c-2,2.8-2.9,6.2-2.3,9.6c0.7,3.2,3,5.9,5.5,8.1c11.8,10.8,27.7,15.5,41.8,23.1c4.7,2.4,9.1,5.5,12.8,9.2
	c3.1,3.5,5.8,7.3,8,11.4l35.4,59c2.2,3.9,4.7,7.5,7.5,11c2.3,2.7,4.8,5,7.2,7.6c5.7,6,10.1,13.1,15.5,19.3
	c7.5,8.7,16.9,15.6,26.1,22.5c1.9,1.4,4,2.9,6.3,3c3.1,0.2,5.8-2,8.1-4.1c3.8-3.3,11.5-8.2,13.6-12.8c1.8-4.1-1.4-8.3-3.3-11.9
	C600.8,472.1,593.6,461.8,585.4,452.4z"/>
<path class="st3" d="M614.8,637.8l-88.5,1l-12.4,0.1l-24.4,0.3h-1.1l-20.8,0.2c1.8-6,4.2-11.9,7-17.5c1.8-3.5,4-6.9,6.4-10
	c4.5,0.4,8.9,0.8,13.4,1.1c10.3,0.8,20.7,1.5,31,2.2c26.2,1.7,52.3,3.2,78.5,5.5c1.8,0.2,3.7,0.4,5,1.5c0.8,0.8,1.4,1.7,1.8,2.8
	C612.6,629.1,614,633.4,614.8,637.8z"/>
<path class="st7" d="M553.3,395.7c22.8-7.3,33.7-11.4,54-24.1c-4.4,0.7,2-4.6-2.4-5.2s-8.9-2.8-11.2-6.7c-1.5-2.5-1.9-5.5-2.3-8.4
	l-2.2-15.8c0.3,1.9-41.3,2.1-41.6,13.8c-0.2,6.1,4.2,13.1,5.3,19.2C554.7,377.5,554.8,386.7,553.3,395.7z"/>
<path class="st4" d="M553.3,395.7c22.8-7.3,33.7-11.4,54-24.1c-4.4,0.7,2-4.6-2.4-5.2s-8.9-2.8-11.2-6.7c-1.5-2.5-1.9-5.5-2.3-8.4
	l-2.2-15.8c0.3,1.9-41.3,2.1-41.6,13.8c-0.2,6.1,4.2,13.1,5.3,19.2C554.7,377.5,554.8,386.7,553.3,395.7z"/>
<path class="st8" d="M646.7,538.7c0,2.6,0,5.3-0.1,7.9c-0.5,11.3-2.3,22.6-3.4,33.8c-1.9,19-1.8,38-1.5,57.1l-26.9,0.3l-88.5,1
	l-12.4,0.1l-24.4,0.3c-0.2-0.5-0.5-1.1-0.8-1.6c0,0,0,0,0-0.1c-3.2-6.2-9.1-10.6-14.1-15.6c-2.4-2.3-4.5-4.9-6.2-7.7
	c11-18.9,21.1-38.7,28.3-59.3c1-2.8,1.9-5.5,3-8.2c0.7-1.9,1.6-3.7,2.5-5.4c1.8-3.1,4-5.9,5.3-9.2c1-2.9,1.5-6,1.5-9.1
	c0-0.6,0.1-1.2,0.1-1.9c0.1-2.7,0.2-5.3,0.2-7.9c0-0.2,0-0.4,0-0.6c0-3.2-0.1-6.3-0.3-9.5c-0.5-7.1-1.4-14.2-0.6-21.3
	c1.6-13.3,9.5-24.8,15.1-37c0.5-1.2,1.1-2.3,1.5-3.5c0.8-1.8,1.4-3.6,2.1-5.5c3.8-10.7,6.6-21.9,13.5-30.6c0.6-0.7,1.2-1.5,1.9-2.2
	c2.9-3.1,6.4-5.8,8.2-9.7c1.7-3.9,2.2-8.8-1.9-9.8c1.9-1.4,3.8-2.7,5.5-3.9c13.5-9.3,22.1-13.6,40-17.5c0.4-0.1,0.8-0.2,1.2-0.2
	c1.1-0.3,2.3-0.3,3.5,0c1.2,0.4,2.3,1,3.3,1.7c10.8,7.6,21,13.5,25.5,25.9c1.6,4.3,6.5,11.3,7.3,15.8c1.8,10.7,6.4,20.4,9.6,30.4
	c2,5.9,3.1,12.2,3.1,18.4c-0.2,17.5-3.7,35-3.2,52.5c0.1,1.9,0.2,3.8,0.3,5.7c0,0.2,0,0.4,0,0.6c0.2,2.6,0.4,5.3,0.7,7.9
	C646,526.9,646.7,532.8,646.7,538.7z"/>
<path class="st7" d="M564.8,494.9c0,0.1,0,0.3,0,0.4c-0.2,3.7-0.4,7.4-0.8,11.1c0,0.6-0.1,1.3-0.2,2c-0.1,1.4-0.3,2.8-0.5,4.2
	c0,0.2,0,0.4-0.1,0.6c-0.3,2.7-0.7,5.3-1.2,7.9c-0.5,2.6-1.1,5.4-1.9,8c-1.7,5.9-4.1,11.7-6,17.5c-0.6,2-1.2,4-1.7,6
	c-0.8,3.4-1.4,6.8-2.4,10.2c-1.4,4.2-3.1,8.3-5.2,12.3l-19.5,40.1c-3.5,7.3-7.1,14.5-10.6,21.8c-0.3,0.6-0.6,1.2-0.9,1.8l-24.4,0.3
	h-1.1c0.1-0.5,0.2-1.1,0.4-1.6c1.9-8.2,3.8-16.4,5.7-24.5s3.7-16.2,5.5-24.2c1.3-5.9,2.7-11.8,4.1-17.7c1.5-6.5,3-13,4.5-19.5
	c0.4-1.7,0.8-3.4,1.2-5.1c1.8-7.9,3.7-15.8,6-23.5c0.2-0.7,0.4-1.3,0.6-2c0.8-2.7,1.7-5.3,2.6-7.9c0.1-0.2,0.1-0.4,0.2-0.6
	c2.2-6.4,4.8-12.7,7.8-18.8c0.1-0.2,0.1-0.3,0.2-0.4c0.1-0.1,0,0,0,0c0.8-1.7,1.7-3.3,2.6-5c2-3.6,3.7-8.6,8.2-9.3
	c4-0.6,9.9,1.6,14.6,3.2l0,0c1.3,0.5,2.5,0.8,3.5,1.1c3,0.8,6.3,1.9,7.8,4.6C565.1,490,565,492.5,564.8,494.9z"/>
<path class="st4" d="M541.8,411.9c-5,5.1-7.9,11.9-10.1,18.7c-6.3,19.7-8,40.7-4.9,61.2c0.3,2.2,0.9,4.7,2.7,5.9
	c2.1,1.4,5.1,0.7,7-1s2.8-4.2,3.8-6.5c1.6,3.9,3.3,7.9,6.4,10.8c6.3,6,16.5,5.7,23.8,10.5c10.1-20.7,19-41.9,26.6-63.7
	c1.3-3.3,2.2-6.8,2.4-10.3c0-3.2-0.6-6.4-1.8-9.3c-4-10.4-13.3-18.4-24-21.5C563.6,403.5,549.7,403.9,541.8,411.9z"/>
<path class="st8" d="M540.7,409.4c-5,5.1-7.9,11.9-10.1,18.7c-6.3,19.8-8,40.7-4.9,61.2c0.3,2.2,0.9,4.7,2.7,5.9
	c2.1,1.4,5.1,0.7,7-1s2.8-4.2,3.8-6.5c1.6,3.9,3.3,7.9,6.4,10.8c6.3,6,16.5,5.7,23.8,10.4c10.1-20.7,19-41.9,26.6-63.7
	c1.3-3.3,2.2-6.8,2.5-10.3c0-3.2-0.6-6.4-1.8-9.3c-4-10.4-13.3-18.4-24-21.5C562.3,401.1,548.5,401.5,540.7,409.4z"/>
<circle class="st7" cx="560.7" cy="319" r="42.6"/>
<path class="st3" d="M518.2,299.8c2.7-3.1,6.4-5.2,10.5-5.8c-0.4,4.3,3.3,8,7.3,9.8c3.9,1.8,8.4,2.4,12.3,4.3
	c6.9,3.4,12.2,11,19.9,11.2c2.7,0.1,6-0.5,7.5,1.7c0.6,1,0.9,2.1,0.9,3.2l0.7,8.1c2.1,1.2,4.8-0.2,7.2-0.8c5.2-1.2,10.4,2,11.6,7.3
	c0.5,2.1,0.3,4.3-0.6,6.3c10.8,1.5,20.7-5.9,22.3-16.7c0.3-2.3,0.2-4.6-0.2-6.8c-0.5-1.6-0.8-3.3-0.8-5c0.3-3.9,4-6.4,6.1-9.6
	c2.9-4.5,2.7-10.5,0.8-15.5c-2-5-5.4-9.2-8.8-13.4l-12.1-14.7c-5.6-6.8-12.2-14.1-21-14.6c-6.2-0.3-12.1,3-18.2,3.6
	c-9,0.9-18.5-4-26.8-0.6c-6,2.4-9.6,8.4-12.7,14c-2.7,4.7-5.3,9.4-6.5,14.7c-1.8,8.5,0.8,17.5-0.2,26.1L518.2,299.8z"/>
<path class="st9" d="M26.9,574.8c2-1.3,4-2.5,5.9-3.7c0.9-0.6,1.8-1.1,2.7-1.8c4.3-2.9,8.3-6.2,11.9-9.8c0.3-0.2,0.5-0.5,0.8-0.8
	l0.2-0.2c2-1.8,3.6-4,4.8-6.4c1.6-3.5,1.5-7.5,1.4-11.4c-0.2-8.2-0.6-16.3-1-24.5c-0.2-3.2-0.4-6.3-0.6-9.5c-0.1-1.5-0.2-3-0.3-4.5"
	/>
<path class="st5" d="M67.2,501.5c-0.2-4.8-2.9-9.1-7-11.5l-3.1,6.2l0.1-7.5c-7.4-2.2-15.2,2-17.4,9.4s2,15.2,9.4,17.4
	s15.2-2,17.4-9.4C67,504.6,67.2,503.1,67.2,501.5L67.2,501.5z"/>
<path class="st5" d="M42.8,585.2l-6.6,5.3c-3.1-4.7-5.9-9.4-8.6-14.3c0.4-0.1,0.9-0.1,1.3-0.1C35.1,575.8,40.7,579.5,42.8,585.2z"/>
<path class="st5" d="M43.7,590.1c0,2.2-0.5,4.4-1.6,6.4c-0.2,0.5-0.5,1-0.8,1.4l-0.9-1.3c-1.2-1.7-2.3-3.3-3.4-5L43.7,590.1z"/>
<path class="st5" d="M35.2,569.3c-7.7,0.4-14.3-5.5-14.8-13.2c-0.4-6.6,3.9-12.6,10.3-14.3l-0.1,5.8l3.2-6.3l0,0
	c7.7-0.4,14.3,5.6,14.7,13.3c0,0,0,0,0,0.1c0.1,1.6-0.1,3.2-0.6,4.8C46.2,565,41.1,569,35.2,569.3z"/>
<path class="st5" d="M69.3,546.6c-7.7,0.3-14.2-5.7-14.5-13.5c-0.3-7.7,5.7-14.2,13.5-14.5c2.5-0.1,5,0.5,7.3,1.7l-2.5,6.8l5.1-4.9
	c2.7,2.5,4.4,6,4.5,9.7c0.1,1.3-0.1,2.6-0.4,3.9C80.9,541.9,75.5,546.3,69.3,546.6z"/>
<path class="st4" d="M65.3,505.2c-3.2,0.4-6.4,1.4-9.6,1.6s-6.8-0.6-8.9-3.1c-1.1-1.4-1.7-3.1-2.6-4.6c-0.9-1.4-2.1-2.5-3.5-3.3
	c-3.3,7-0.4,15.3,6.6,18.7c7,3.3,15.3,0.4,18.7-6.6c0.4-0.9,0.8-1.8,1-2.8C66.3,505.2,65.8,505.2,65.3,505.2z"/>
<path class="st4" d="M69.3,546.6C61.6,547,55,541,54.6,533.3c-0.1-2.3,0.3-4.6,1.3-6.7c1.1,0.7,2.1,1.7,2.8,2.8
	c1,1.5,1.6,3.2,2.8,4.6c2.2,2.6,5.9,3.4,9.3,3.2s6.7-1.1,10-1.4c0.5,0,0.9-0.1,1.4-0.1C80.8,541.9,75.5,546.3,69.3,546.6z"/>
<path class="st4" d="M35.2,569.3c-7.7,0.4-14.3-5.6-14.7-13.3c-0.1-2.2,0.3-4.5,1.2-6.5c1.2,0.8,2.2,1.7,3,2.8
	c1.1,1.5,1.8,3.3,3,4.7c2.4,2.6,6.3,3.6,9.9,3.5s6.8-0.9,10.3-1.2C46.2,565,41.1,569,35.2,569.3z"/>
<path class="st5" d="M42.1,596.5c-0.2,0.5-0.5,1-0.8,1.4l-0.9-1.3L42.1,596.5z"/>
</svg>
