<?xml version="1.0" encoding="utf-8"?>
<!-- Generator: Adobe Illustrator 23.0.1, SVG Export Plug-In . SVG Version: 6.00 Build 0)  -->
<svg version="1.1" id="af8363df-f336-47a7-a0a7-f658d27a6b25"
	 xmlns="http://www.w3.org/2000/svg" xmlns:xlink="http://www.w3.org/1999/xlink" x="0px" y="0px" viewBox="0 0 1124.7 795.1"
	 style="enable-background:new 0 0 1124.7 795.1;" xml:space="preserve">
<style type="text/css">
	.st0{opacity:0.1;fill:#FAA41A;enable-background:new    ;}
	.st1{opacity:0.5;fill:#DEE3F3;enable-background:new    ;}
	.st2{fill:url(#SVGID_1_);}
	.st3{fill:url(#SVGID_2_);}
	.st4{fill:url(#SVGID_3_);}
	.st5{fill:url(#SVGID_4_);}
	.st6{fill:#FAA41A;}
	.st7{opacity:0.1;enable-background:new    ;}
	.st8{opacity:0.3;enable-background:new    ;}
	.st9{fill:#DEE3F3;}
	.st10{fill:none;stroke:#FC6681;stroke-width:2;stroke-miterlimit:10;}
	.st11{fill:#FC6681;}
	.st12{fill:none;stroke:#FFD037;stroke-width:2;stroke-miterlimit:10;}
	.st13{fill:#FFD037;}
	.st14{fill:#A8A8A8;}
	.st15{opacity:0.2;enable-background:new    ;}
	.st16{fill:url(#SVGID_5_);}
	.st17{fill:#F7C4A7;}
	.st18{fill:#535461;}
	.st19{fill:#575988;}
	.st20{fill:#E14B5A;}
	.st21{fill:#632652;}
	.st22{opacity:0.5;fill:#FFFFFF;enable-background:new    ;}
	.st23{fill:none;stroke:#535461;stroke-width:3;stroke-miterlimit:10;}
	.st24{fill:url(#SVGID_6_);}
	.st25{opacity:0.1;}
	.st26{fill:#FFFFFF;}
	.st27{opacity:0.1;fill:none;stroke:#000000;stroke-miterlimit:10;enable-background:new    ;}
	.st28{fill:#6A5C99;}
	.st29{fill:#D6D6E3;}
</style>
<title>firmware</title>
<path class="st0" d="M1060.8,449.6c-37.7,47.9-23,117.8,0.9,173.9c8,18.8,17.1,38.6,13.7,58.7c-4.1,24.6-26.1,42.6-49.1,52.1
	c-42,17.4-92.3,13.2-130.9-10.8c-33.4-20.8-57.3-54.5-91.2-74.3c-56.8-33.2-129.1-20.6-190.7,2.2c-43.6,16.2-91.3,37.2-134.7,20.3
	c-30.5-11.9-51.6-40.8-63.1-71.5c-5.5-14.8-9.6-30.8-20.2-42.5c-6.3-7-14.5-11.9-22.9-16.1c-76.9-38.1-174-17.7-248.6-60
	C73.5,453,41.3,399.1,27,343s-12.6-115-9-172.9c2.6-41.1,7.2-85,33.5-116.7c27.8-33.6,75.5-46,118.6-39.7s82.2,29.1,116.5,55.9
	c43,33.5,82.8,75.1,135.5,88.7c35.9,9.2,73.7,4.2,110.7,2.4c61.9-2.9,123.9,3.6,185.4,10.7c59,6.8,118.3,14.3,174.5,33.5
	c39.7,13.6,71.6,38.2,109.1,55.4c24.5,11.2,51.1,14.3,74.3,28.6c28.5,17.6,54.7,48.2,47.4,84
	C1116.5,407.1,1080.8,424.1,1060.8,449.6z"/>
<path class="st1" d="M624,441.1c-3.4,3.4-4.2,8.1-5.4,12.5c-3.5,12.4-11.6,23.9-23,32.3c-8.3,6.2-19.5,13-17.5,22.2
	c0.5,2.2,1.7,4.3,2,6.5c1.4,9.6-13.3,14.7-19,23.1c-4.2,6.3-3.1,14-1.8,21.2c1.5,8.7,3.4,18,10.6,24.5c1.9,1.7,4.2,3.2,5.6,5.3
	c3,4.7,0.4,10.8,3.1,15.6c3.7,6.4,15.2,6.7,21.9,2.4s9.8-11.4,12.8-18.1c8-18,17.9-36.1,34.5-49.2c16-12.6,39.2-22.3,42-40.6
	c1.2-7.8-1.8-16.5,2.8-23.4c2.2-3.3,5.7-5.7,8.2-8.8c7.2-9.3,1.8-22.8-8.8-29.4C675.9,427.3,638,427.1,624,441.1z"/>
<ellipse class="st1" cx="817.4" cy="403" rx="155" ry="26"/>
<linearGradient id="SVGID_1_" gradientUnits="userSpaceOnUse" x1="806.245" y1="475.2395" x2="806.245" y2="502.4395" gradientTransform="matrix(1 0 0 -1 0 796.319)">
	<stop  offset="0" style="stop-color:#808080;stop-opacity:0.25"/>
	<stop  offset="0.54" style="stop-color:#808080;stop-opacity:0.12"/>
	<stop  offset="1" style="stop-color:#808080;stop-opacity:0.1"/>
</linearGradient>
<polygon class="st2" points="841.8,302.2 853.3,302.2 853.3,295.1 853.3,293.9 759.2,293.9 759.2,295.1 759.2,302.2 770.7,302.2 
	770.7,310.6 751.8,310.6 751.8,321.1 860.7,321.1 860.7,310.6 841.8,310.6 "/>
<linearGradient id="SVGID_2_" gradientUnits="userSpaceOnUse" x1="843.9105" y1="386.8295" x2="843.9105" y2="668.084" gradientTransform="matrix(1 0 0 -1 -37.66 730.949)">
	<stop  offset="0" style="stop-color:#808080;stop-opacity:0.25"/>
	<stop  offset="0.54" style="stop-color:#808080;stop-opacity:0.12"/>
	<stop  offset="1" style="stop-color:#808080;stop-opacity:0.1"/>
</linearGradient>
<path class="st3" d="M918.9,309.9L918.9,309.9c0.8-9.8,0.6-19.6-0.6-29.3c-1-8.2-3.3-16.3-6.7-23.8c-6.1-12.7-14.7-19.6-22.3-23.3
	c-5.1-2.6-10.6-4.1-16.3-4.4c-0.6-4-4.3-6.8-8.3-6.2c-3.2,0.5-5.7,3-6.2,6.2v-18.9h-39.8v-10.5h53.5c3.3,0,6.1-2.7,6.1-6.1v-54.9
	c0-3.3-2.7-6.1-6.1-6.1H852V78.7c2.9-1.3,4.8-4.2,4.8-7.4c0-0.1,0-0.2,0-0.2s0-0.2,0-0.2c-0.2-4.5-3.9-8-8.5-7.9
	c-4.3,0.1-7.7,3.6-7.9,7.9c0,0.1,0,0.2,0,0.2s0,0.2,0,0.2c0,3,1.7,5.8,4.3,7.2v54.3h-75.4V78.4c2.7-1.4,4.3-4.2,4.3-7.2
	c0-0.1,0-0.2,0-0.2s0-0.2,0-0.2c-0.2-4.5-3.9-8-8.5-7.9c-4.3,0.1-7.7,3.6-7.9,7.9c0,0.1,0,0.2,0,0.2s0,0.2,0,0.2
	c0,3.2,1.9,6.1,4.8,7.4v54.1h-22.1c-3.3,0-6.1,2.7-6.1,6.1v54.8c0,3.3,2.7,6.1,6.1,6.1h53.6v10.5h-39.8v15.4c-0.3-1-0.9-1.9-1.6-2.6
	l-0.2-0.2c-2.9-2.9-7.5-2.9-10.4,0c-1.4,1.4-2.2,3.2-2.1,5.2v1c-5.8,0.3-11.4,1.8-16.5,4.5c-7.6,3.8-16.2,10.6-22.3,23.4
	c-3.5,7.5-5.7,15.6-6.7,23.8c-1.2,9.7-1.4,19.5-0.6,29.3c-16.8,13.9,4.2,34.2,4.2,34.2c17.2,0,16.8-28.6,16.7-33.5h0.1
	c0,0,0-0.2-0.1-0.7l0,0l0,0c-1.2-8-1.6-16.1-1-24.2c0.4-6.4,1.8-12.6,4.1-18.5c1.8-4.6,4.6-8.8,8.3-12.2c3.9-3.5,8.7-5.8,13.9-6.7
	v4.7c0,4,3.3,7.3,7.3,7.3c3.1,0,5.9-2,6.9-5v38.4h104.6v-37.6c0.2,1.5,0.9,2.8,1.9,3.9l0.2,0.2c2.9,2.9,7.5,2.9,10.4,0
	c1.4-1.4,2.2-3.2,2.1-5.2v-6.7c5.1,0.9,9.8,3.2,13.6,6.6c3.6,3.4,6.5,7.5,8.3,12.2c2.3,5.9,3.7,12.2,4.1,18.6
	c0.6,8.1,0.2,16.2-1,24.2l0,0l0,0c-0.1,0.5-0.1,0.7-0.1,0.7h0.1c-0.2,4.9-0.6,33.5,16.7,33.5C914.7,344.1,935.7,323.8,918.9,309.9z"
	/>
<linearGradient id="SVGID_3_" gradientUnits="userSpaceOnUse" x1="779.04" y1="387.3395" x2="779.04" y2="475.2295" gradientTransform="matrix(1 0 0 -1 0 796.319)">
	<stop  offset="0" style="stop-color:#808080;stop-opacity:0.25"/>
	<stop  offset="0.54" style="stop-color:#808080;stop-opacity:0.12"/>
	<stop  offset="1" style="stop-color:#808080;stop-opacity:0.1"/>
</linearGradient>
<polygon class="st4" points="757.1,322 757.1,331.5 769.6,331.5 769.6,346.2 769.6,346.2 769.6,358.7 769.6,377.6 769.6,388 
	769.6,394.3 755,394.3 755,409 794.7,409 794.7,394.3 788.5,394.3 788.5,388 788.5,388 788.5,377.6 788.5,377.6 788.5,358.7 
	788.5,358.7 788.5,346.2 788.5,346.2 788.5,331.5 803.1,331.5 803.1,322 803.1,321.1 757.1,321.1 "/>
<linearGradient id="SVGID_4_" gradientUnits="userSpaceOnUse" x1="830.31" y1="387.3395" x2="830.31" y2="475.2295" gradientTransform="matrix(1 0 0 -1 0 796.319)">
	<stop  offset="0" style="stop-color:#808080;stop-opacity:0.25"/>
	<stop  offset="0.54" style="stop-color:#808080;stop-opacity:0.12"/>
	<stop  offset="1" style="stop-color:#808080;stop-opacity:0.1"/>
</linearGradient>
<polygon class="st5" points="807.3,322 807.3,331.5 826.1,331.5 826.1,346.2 826.1,346.2 826.1,358.7 826.1,377.6 826.1,388 
	826.1,394.3 811.5,394.3 811.5,409 851.2,409 851.2,394.3 845,394.3 845,388 845,377.6 845,358.7 845,346.2 845,346.2 845,331.5 
	853.3,331.5 853.3,322 853.3,321.1 807.3,321.1 "/>
<path class="st6" d="M749,135.5h114.6c7.2,0,13,5.8,13,13v39.2c0,7.2-5.8,13-13,13H749c-7.2,0-13-5.8-13-13v-39.2
	C736,141.3,741.8,135.5,749,135.5z"/>
<rect x="747.2" y="190.7" class="st7" width="118.1" height="1.2"/>
<rect x="747.2" y="145.7" class="st8" width="118.1" height="44.8"/>
<circle class="st7" cx="774.7" cy="169" r="16.3"/>
<circle class="st9" cx="774.7" cy="168.1" r="16.3"/>
<circle class="st7" cx="837.8" cy="169" r="16.3"/>
<circle class="st9" cx="837.8" cy="168.1" r="16.3"/>
<rect x="794" y="200.7" class="st6" width="24.4" height="14.3"/>
<rect x="755.3" y="210.9" class="st6" width="101.8" height="81.4"/>
<polygon class="st6" points="852.1,292.3 852.1,300.4 840.9,300.4 840.9,308.6 771.6,308.6 771.6,300.4 760.4,300.4 760.4,292.3 "/>
<polygon class="st8" points="852.1,292.3 852.1,300.4 840.9,300.4 840.9,308.6 771.6,308.6 771.6,300.4 760.4,300.4 760.4,292.3 "/>
<rect x="753.3" y="308.6" class="st6" width="105.9" height="10.2"/>
<rect x="758.4" y="318.8" class="st6" width="44.8" height="10.2"/>
<rect x="807.3" y="318.8" class="st6" width="44.8" height="10.2"/>
<rect x="756.4" y="390" class="st6" width="38.7" height="14.2"/>
<polygon class="st6" points="770.6,343.2 770.6,355.4 770.6,373.8 770.6,383.9 770.6,390 788.9,390 788.9,383.9 788.9,373.8 
	788.9,355.4 788.9,343.2 788.9,329 770.6,329 "/>
<polygon class="st6" points="825.6,329 825.6,343.2 825.6,355.4 825.6,373.8 825.6,383.9 825.6,390 843.9,390 843.9,383.9 
	843.9,373.8 843.9,355.4 843.9,343.2 843.9,329 "/>
<rect x="811.3" y="390" class="st6" width="38.7" height="14.2"/>
<path class="st6" d="M755.7,228.2v24.4c0,0.2,0,0.4,0,0.5c-0.4,3.9-3.8,6.8-7.7,6.5c-3.6-0.3-6.4-3.4-6.5-7v-24.4
	c0-3.9,3.2-7.1,7.1-7.1c1.9,0,3.7,0.8,5,2.1l0.2,0.2c1.1,1.2,1.8,2.7,1.9,4.3C755.7,227.8,755.7,228,755.7,228.2z"/>
<path class="st6" d="M871.3,230.2v24.4c0,3.9-3.2,7.1-7.1,7.1c-1.9,0-3.7-0.8-5-2.1l-0.2-0.2c-1.2-1.3-1.9-3-1.9-4.8v-24.4
	c0.1-3.9,3.5-7,7.4-6.9C868.2,223.5,871.2,226.5,871.3,230.2z"/>
<path class="st6" d="M741.5,229.2V248c-5,0.9-9.7,3.1-13.5,6.5c-3.5,3.3-6.3,7.3-8.1,11.8c-2.3,5.8-3.6,11.8-4,18
	c-0.6,8.1-0.2,16.2,1.1,24.2h-20.3c-0.8-9.7-0.7-19.5,0.5-29.2c1-8,3.2-15.8,6.5-23.1c5.9-12.4,14.3-19.1,21.7-22.7
	C730.4,230.9,735.9,229.5,741.5,229.2z"/>
<path class="st6" d="M700.7,341.2c0,0-20.5-19.7-4.1-33.3h20.3C716.9,307.9,719.1,341.2,700.7,341.2z"/>
<path class="st8" d="M700.7,341.2c0,0-20.5-19.7-4.1-33.3h20.3C716.9,307.9,719.1,341.2,700.7,341.2z"/>
<rect x="771.6" y="223.1" class="st8" width="69.2" height="52.9"/>
<rect x="770.6" y="329" class="st8" width="18.3" height="14.2"/>
<rect x="770.6" y="355.4" class="st8" width="18.3" height="18.3"/>
<rect x="770.6" y="383.9" class="st8" width="18.3" height="6.1"/>
<rect x="825.6" y="329" class="st8" width="18.3" height="14.2"/>
<rect x="825.6" y="355.4" class="st8" width="18.3" height="18.3"/>
<rect x="825.6" y="383.9" class="st8" width="18.3" height="6.1"/>
<path class="st8" d="M741.5,229.2V248c-5,0.9-9.7,3.1-13.5,6.5l-2.5-21C730.4,231,735.9,229.5,741.5,229.2z"/>
<path class="st8" d="M719.9,266.4c-2.3,5.8-3.6,11.8-4,18l-18.7-5c1-8,3.2-15.8,6.5-23.1L719.9,266.4z"/>
<path class="st6" d="M871,229.2V248c5,0.9,9.7,3.1,13.5,6.5c3.5,3.3,6.3,7.3,8.1,11.8c2.3,5.8,3.6,11.8,4,18
	c0.6,8.1,0.2,16.2-1.1,24.2h20.4c0.9-9.7,0.7-19.5-0.5-29.2c-1-8-3.2-15.8-6.5-23.1c-5.9-12.4-14.3-19.1-21.7-22.7
	C882.1,230.9,876.6,229.5,871,229.2z"/>
<path class="st6" d="M911.8,341.2c0,0,20.5-19.7,4.1-33.3h-20.3C895.6,307.9,893.4,341.2,911.8,341.2z"/>
<path class="st8" d="M911.8,341.2c0,0,20.5-19.7,4.1-33.3h-20.3C895.6,307.9,893.4,341.2,911.8,341.2z"/>
<path class="st8" d="M871,229.2V248c5,0.9,9.7,3.1,13.5,6.5l2.5-21C882.1,231,876.6,229.5,871,229.2z"/>
<path class="st8" d="M892.6,266.4c2.3,5.8,3.6,11.8,4,18l18.7-5c-1-8-3.2-15.8-6.5-23.1L892.6,266.4z"/>
<rect x="794" y="200.7" class="st7" width="24.4" height="1.7"/>
<path class="st7" d="M859,225.4v34.1c-1.2-1.3-1.9-3-1.9-4.8v-24.5C857.1,228.4,857.7,226.7,859,225.4z"/>
<path class="st7" d="M755.7,227.6v25.5c-0.1,1.6-0.8,3.1-1.9,4.3v-34.2C754.9,224.5,755.6,226,755.7,227.6z"/>
<rect x="760.4" y="292.3" class="st7" width="91.6" height="1.2"/>
<rect x="758.4" y="318.8" class="st7" width="44.8" height="0.9"/>
<rect x="807.3" y="318.8" class="st7" width="44.8" height="0.9"/>
<rect x="763.4" y="75.2" class="st6" width="7" height="60.3"/>
<rect x="843.8" y="75.2" class="st6" width="7" height="60.3"/>
<circle class="st7" cx="766.7" cy="75.7" r="8"/>
<circle class="st6" cx="766.7" cy="75.2" r="8"/>
<circle class="st7" cx="847.5" cy="75.7" r="8"/>
<circle class="st6" cx="847.5" cy="75.2" r="8"/>
<path class="st10" d="M598.9,259.9c0,0,23.3,45.6,4.3,70.6s1.7,93,1.7,93"/>
<path class="st11" d="M605.8,245.7c0,8.8-6.5,15.9-6.5,15.9s-6.5-7.1-6.5-15.9s6.5-15.9,6.5-15.9S605.8,236.9,605.8,245.7z"/>
<path class="st12" d="M611,259.9c0,0-23.3,45.6-4.3,70.6s-1.7,93-1.7,93"/>
<path class="st13" d="M604.1,245.7c0,8.8,6.5,15.9,6.5,15.9s6.5-7.1,6.5-15.9s-6.5-15.9-6.5-15.9S604.1,236.9,604.1,245.7z"/>
<path class="st10" d="M620.4,259.9c0,0,23.3,45.6,4.3,70.6s1.7,93,1.7,93"/>
<path class="st11" d="M627.3,245.7c0,8.8-6.5,15.9-6.5,15.9s-6.5-7.1-6.5-15.9s6.4-15.9,6.4-15.9S627.3,236.9,627.3,245.7z"/>
<path class="st11" d="M623.7,282.3c-6.1,6.3-15.7,7-15.7,7s0.3-9.6,6.4-16s15.7-7,15.7-7S629.8,276,623.7,282.3z"/>
<path class="st11" d="M624.3,313.8c-6.1,6.3-15.7,7-15.7,7s0.3-9.6,6.4-16s15.7-7,15.7-7S630.4,307.5,624.3,313.8z"/>
<path class="st11" d="M591.2,331.1c5.8,6.6,5.6,16.3,5.6,16.3s-9.5-1.1-15.3-7.8s-5.6-16.3-5.6-16.3S585.5,324.5,591.2,331.1z"/>
<path class="st11" d="M596.6,264c7.3,4.9,9.7,14.2,9.7,14.2s-9.5,1.4-16.8-3.4s-9.7-14.2-9.7-14.2S589.2,259.1,596.6,264z"/>
<path class="st12" d="M632.5,259.9c0,0-23.3,45.6-4.3,70.6s-1.7,93-1.7,93"/>
<path class="st13" d="M625.6,245.7c0,8.8,6.5,15.9,6.5,15.9s6.5-7.1,6.5-15.9s-6.5-15.9-6.5-15.9S625.6,236.9,625.6,245.7z"/>
<path class="st13" d="M627.5,283c-6.2,6.3-6.6,15.9-6.6,15.9s9.6-0.5,15.8-6.8s6.6-15.9,6.6-15.9S633.6,276.7,627.5,283z"/>
<path class="st13" d="M639.6,326.6c-6.2,6.3-6.6,15.9-6.6,15.9s9.6-0.5,15.8-6.8s6.6-15.9,6.6-15.9S645.8,320.3,639.6,326.6z"/>
<path class="st12" d="M621.8,317c0,0,14-22.1,33.7-22.5"/>
<path class="st10" d="M610.9,303.7c0,0-14-22.1-33.7-22.5"/>
<path class="st12" d="M609,335.2c0,0,14-22.1,33.7-22.5"/>
<circle class="st13" cx="654.8" cy="294.3" r="3.6"/>
<circle class="st11" cx="577.5" cy="281.3" r="3.6"/>
<path class="st10" d="M619.3,342.4c0,0-14-22.1-33.7-22.5"/>
<circle class="st11" cx="586" cy="320" r="3.6"/>
<circle class="st13" cx="642.9" cy="312.8" r="3.6"/>
<path class="st14" d="M696.7,397.1c0,0-33.7-6.8-42.7-15.7s-49.5-24.7-54-13.5s-60.7,49.5-22.5,56.2s90,9,101.2,4.5
	S696.7,397.1,696.7,397.1z"/>
<path class="st15" d="M577.5,419.9c38.2,6.8,90,9,101.2,4.5c8.6-3.4,14.5-19.9,16.9-27.5l1.1,0.2c0,0-6.8,27-18,31.5
	s-63,2.2-101.2-4.5c-11-2-14.2-6.5-13-12.3C565.5,415.5,569.3,418.4,577.5,419.9z"/>
<path class="st11" d="M1061,268c0,0,8.1,10.6-3.7,26.5s-21.6,29.4-17.6,39.4c0,0,17.8-29.6,32.3-30S1077,285.8,1061,268z"/>
<path class="st7" d="M1061,268c0.7,1,1.3,2.1,1.7,3.3c14.2,16.6,21.7,32.1,8.1,32.5c-12.7,0.4-27.9,23-31.5,28.8
	c0.1,0.4,0.3,0.9,0.4,1.3c0,0,17.8-29.6,32.3-30S1077,285.8,1061,268z"/>
<path class="st13" d="M1076.1,281.5c0,3.7-0.4,6.7-0.9,6.7s-0.9-3-0.9-6.7s0.5-2,1-2S1076.1,277.8,1076.1,281.5z"/>
<path class="st13" d="M1081.2,285.9c-3.3,1.8-6.1,2.9-6.4,2.4s2.2-2.3,5.5-4s2-0.5,2.2,0S1084.5,284.1,1081.2,285.9z"/>
<path class="st11" d="M1018.3,268c0,0-8.1,10.6,3.7,26.5c11.8,16,21.5,29.4,17.6,39.4c0,0-17.8-29.6-32.3-30
	S1002.4,285.8,1018.3,268z"/>
<path class="st7" d="M1018.3,268c-0.7,1-1.3,2.1-1.7,3.3c-14.2,16.6-21.7,32.1-8.1,32.5c12.7,0.4,27.9,23,31.5,28.8
	c-0.1,0.4-0.3,0.9-0.4,1.3c0,0-17.8-29.6-32.3-30S1002.4,285.8,1018.3,268z"/>
<path class="st13" d="M1003.3,281.5c0,3.7,0.4,6.7,0.9,6.7s0.9-3,0.9-6.7s-0.5-2-1-2S1003.3,277.8,1003.3,281.5z"/>
<path class="st13" d="M998.2,285.9c3.3,1.8,6.1,2.9,6.4,2.4s-2.2-2.3-5.5-4s-2-0.5-2.2,0S994.9,284.1,998.2,285.9z"/>
<path class="st14" d="M1005.9,332.5c0,0,22.6-0.7,29.4-5.5s34.8-10.6,36.4-2.9s34,38.7,8.4,38.9s-59.3-4-66.1-8.1
	S1005.9,332.5,1005.9,332.5z"/>
<path class="st15" d="M1080.7,360.3c-25.5,0.2-59.3-4-66.1-8.1c-5.2-3.1-7.2-14.5-7.9-19.7h-0.8c0,0,1.4,18.2,8.2,22.4
	s40.6,8.3,66.1,8.1c7.4-0.1,9.9-2.7,9.8-6.6C1089,358.8,1086.2,360.3,1080.7,360.3z"/>
<rect x="834" y="117.6" transform="matrix(0.9545 -0.2982 0.2982 0.9545 3.2185 265.2974)" class="st6" width="74" height="9"/>
<path class="st14" d="M936.4,441.1c0,0-38.7-7.7-49-18.1s-56.8-28.4-62-15.5s-69.7,56.8-25.8,64.5s103.3,10.3,116.2,5.2
	S936.4,441.1,936.4,441.1z"/>
<path class="st15" d="M799.6,467.3c43.9,7.7,103.3,10.3,116.2,5.2c9.8-3.9,16.7-22.8,19.4-31.6l1.3,0.3c0,0-7.7,31-20.7,36.1
	s-72.3,2.6-116.2-5.2c-12.7-2.2-16.3-7.5-14.9-14.1C785.8,462.3,790.2,465.6,799.6,467.3z"/>
<linearGradient id="SVGID_5_" gradientUnits="userSpaceOnUse" x1="969.1344" y1="227.9494" x2="969.1344" y2="647.0363" gradientTransform="matrix(1 0 0 -1 -37.66 730.949)">
	<stop  offset="0" style="stop-color:#808080;stop-opacity:0.25"/>
	<stop  offset="0.54" style="stop-color:#808080;stop-opacity:0.12"/>
	<stop  offset="1" style="stop-color:#808080;stop-opacity:0.1"/>
</linearGradient>
<path class="st16" d="M1022.4,103.5c-0.7-1.7-1.8-3.2-3.2-4.4c-10.4-9.5-27.2-6.6-40.1-12.4c-3-1.3-6-3.2-9.2-2.7
	c-4.5,0.7-8.7,5.8-12.6,3.6l0.3,0.9l-0.3-0.1l2.9,8.8c1.1,3.4,2.3,6.9,4.4,9.7c-10.5,9.2-11.6,25.2-2.4,35.7
	c2.4,2.7,5.3,4.9,8.6,6.4l0.4,0.9l0.4,0.2c0.9,2,1.5,4,1.9,6.1c-3.3,0.5-9.2,4.2-14.9,9.6l-11.5-0.4c-7.4-0.2-14.6-2.7-20.6-7
	l-34.3-24.6c-2.4,0.2-4.7,1.3-6.6,2.9c-4.3-4.4-7.9-9.1-7.6-11.8c0,0-16-29.8-21.7-14.9s10.9,30.6,10.9,30.6l10.6,13.7
	c-0.4,2.4-0.7,4.8-0.8,7.3c13,14.9,58.7,28.4,58.7,28.4l7.1,0.3v0.4c-0.4,1.9-0.7,3.8-0.6,5.7c0,0.3,0,0.6,0,0.9s0,0.4,0,0.6
	c0.4,23.8,3.6,96.6,3.6,96.6c0.6-0.3,1.3-0.5,2-0.8l-0.5,6.5c0,0-30.4,4.3-52.9,12.8s-23.2,18.5-23.2,18.5v87.8
	c-6.4,3.3-16.5,7.6-21.7,5.3c-5.6-2.5-8.7-0.4-9.3,1.8l0,0c-0.1,0.4-0.1,0.9,0,1.3l0,0c0,0.2,0.1,0.4,0.2,0.6l0,0
	c0.1,0.2,0.2,0.4,0.4,0.5c2.2,2.1,49.3,20.6,60.2,17.8c0.3-0.1,0.7-0.2,1-0.3l0.3-0.1c0.2-0.1,0.4-0.2,0.6-0.3s0.2-0.1,0.3-0.2
	s0.3-0.2,0.5-0.3s0.2-0.2,0.3-0.3s0.3-0.2,0.4-0.4s0.2-0.2,0.3-0.3s0.2-0.3,0.4-0.4s0.2-0.2,0.2-0.3s0.2-0.3,0.3-0.5
	s0.1-0.2,0.2-0.4s0.2-0.4,0.3-0.5s0.1-0.2,0.2-0.4s0.2-0.4,0.2-0.6l0.1-0.4c0.1-0.2,0.2-0.4,0.2-0.7l0.1-0.4
	c0.1-0.2,0.1-0.5,0.2-0.7l0.1-0.3c0.1-0.3,0.1-0.5,0.2-0.8v-0.3c0-0.3,0.1-0.6,0.1-0.9v-0.2c0-0.3,0.1-0.6,0.1-0.9V435
	c0-0.3,0-0.7,0.1-1v-0.1c0-0.4,0-0.7,0-1.1v-0.1c0-4.2-0.5-8.5-1.4-12.6l0,0l2.6-74.8c14.3,0.2,28.6-0.3,42.8-1.5l1.6,35.7
	c0,0,0,23.5,8,34.1c6.8,9.1,14.7,49.5,16.8,60.9c-2.9,5.6-8.5,12.5-18.3,12.3c0,0-18.4-1.6-17.3,3.5l0,0c0,0.1,0.1,0.3,0.1,0.4l0,0
	c0.1,0.1,0.1,0.3,0.2,0.4l0,0c0.1,0.1,0.2,0.3,0.2,0.4l0.1,0.1c0.1,0.2,0.2,0.3,0.4,0.5l0,0l0.4,0.4l0.1,0.1
	c0.2,0.2,0.3,0.3,0.5,0.5c9.4,8.5,64.5,10,64.5,10v-0.2c0,0,0-0.1,0-0.2l0,0c0-2.5-0.4-15.4-3.7-25.2h0.8c0,0-8-71.8-14.5-80.3
	c0,0-1.7-37.8,2.2-61.6l0.7-0.3c18.3-6.8,19.6-23.6,17.7-36c3.5,1.1,5.5,1.9,5.5,1.9s-0.1-0.5-0.2-1.5l0.2,0.1c0,0-0.3-2.3-0.9-5.8
	c-1.3-9.7-3.8-26.6-6.5-34.6c-0.4-1.8-0.8-3.3-1.2-4.4c-1.6-4.8-2.6-9.7-3.2-14.8c-0.7-6.5-1.1-13-1.1-19.6c0.1-8.7,0.7-17.5,2-26.1
	c1.1-7.6,2.1-16.1,2-22.1c0.1-2.1-0.1-4.2-0.4-6.2c-1-4.4-5.2-7.3-9.7-9.1c-0.3-0.1-0.6-0.2-0.9-0.3c0.1-1.7,0.2-3.6,0.4-5.6
	c1.1,0.7,2.4,1,3.7,0.8c1.9-0.4,3.3-2,4.5-3.5c6.4-7.9,13-16.1,15.5-25.9c1-4.4,1.4-8.9,1.4-13.3c0-0.2,0-0.5,0-0.7
	C1023.1,106.7,1022.9,105.1,1022.4,103.5z"/>
<path class="st17" d="M963.9,141.9c0,0,9.7,14.6,7.7,21.6s22.9,2.8,22.9,2.8s0.7-27.1,5.6-33.4S963.9,141.9,963.9,141.9z"/>
<path class="st17" d="M899.6,151.3c0,0-20.2-16.7-19.5-22.9c0,0-15.3-29.2-20.9-14.6s10.4,29.9,10.4,29.9l19.5,25.7L899.6,151.3z"/>
<path class="st18" d="M879.1,413.1c0,0-18.8,11.8-26.4,8.4s-10.4,2.1-8.3,4.2s47.3,20.2,57.7,17.4s5.1-25.5,5.1-25.5L879.1,413.1z"
	/>
<path class="st18" d="M978.5,463.8c0,0-4.5,19.1-20.2,18.8c0,0-23.6-2.1-14.6,6.3s61.9,9.7,61.9,9.7s0-28.5-9.7-34.8
	S978.5,463.8,978.5,463.8z"/>
<path class="st19" d="M950,329l2.1,48.7c0,0,0,22.9,7.7,33.4s16.7,62.6,16.7,62.6h26.4c0,0-7.7-70.2-13.9-78.6c0,0-2.8-61.9,7-75.8
	L950,329z"/>
<path class="st7" d="M950,329l2.1,48.7c0,0,0,22.9,7.7,33.4s16.7,62.6,16.7,62.6h26.4c0,0-7.7-70.2-13.9-78.6c0,0-2.8-61.9,7-75.8
	L950,329z"/>
<path class="st19" d="M1005,285.2c0,0,16,38.2-13.2,49.4s-82,9.7-82,9.7l-2.8,80.6c0,0-32.7,4.2-33.4-6.3v-88.3
	c0,0,0.7-9.7,22.2-18.1s50.7-12.5,50.7-12.5l1.4-18.1L1005,285.2z"/>
<path class="st7" d="M979.3,159.2c5.6-0.6,11.2,0.2,16.3,2.3c4.3,1.8,8.4,4.6,9.3,8.9c1.1,5.1-0.1,16.6-1.5,26.4
	c-2.2,15.3-2.5,30.8-0.8,46.1c0.7,6.4,1.7,12,3.1,14.4c4.2,7.6,8.3,43.8,8.3,43.8s-45.9-17.4-68.8-7c0,0-3.1-71.3-3.5-94.5
	c-0.3-18,22.6-38.6,30.2-39.3C976.4,160,974.9,159.7,979.3,159.2z"/>
<path class="st20" d="M979.3,157.8c5.6-0.6,11.2,0.2,16.3,2.3c4.3,1.8,8.4,4.6,9.3,8.9c1.1,5.1-0.1,16.6-1.5,26.4
	c-2.2,15.3-2.5,30.8-0.8,46.1c0.5,4.9,1.6,9.7,3.1,14.4c3.1,9.4,8.3,43.8,8.3,43.8s-45.9-17.4-68.8-7c0,0-3.1-71.3-3.5-94.5
	c-0.3-18,22.6-38.6,30.2-39.3C976.4,158.6,974.9,158.3,979.3,157.8z"/>
<path class="st7" d="M991.7,196.2l-49.4-2.8c0,0-3.1-24.2,4-23.9l48.8,1.7C995.2,171.1,1005.7,183.7,991.7,196.2z"/>
<path class="st20" d="M991.7,194.8l-56.3-2.8c0,0-43.8-13.2-56.3-27.8c0,0,0.7-25.7,14.6-27.1l32.9,24.1c5.7,4.2,12.6,6.6,19.7,6.9
	l48.8,1.7C995.2,169.8,1005.7,182.3,991.7,194.8z"/>
<path class="st7" d="M994.2,145.1c0.8-6.6,3.8-8.8,5.9-11.5c4.9-6.3-36.2,9-36.2,9c2.1,3.3,4,6.7,5.5,10.2c3.3,1.5,6.8,2.3,10.4,2.3
	C986,155.2,989.9,148.6,994.2,145.1z"/>
<circle class="st17" cx="979.9" cy="129.4" r="25"/>
<path class="st7" d="M964.1,111.9c-2.7-2.9-4-6.8-5.2-10.6l-2.8-8.6c3.8,2.2,7.8-2.8,12.1-3.5c3.1-0.5,6,1.3,8.9,2.6
	c12.4,5.7,28.5,2.9,38.5,12.1c1.4,1.2,2.4,2.7,3.1,4.3c0.5,1.6,0.7,3.2,0.6,4.9c0.1,4.4-0.4,8.8-1.3,13.1
	c-2.4,9.6-8.7,17.6-14.8,25.4c-1.2,1.5-2.5,3-4.3,3.4c-3.6,0.8-6.3-3.1-7.7-6.5c-1.8-4.5-3.2-9.2-4-14c-0.2-2-0.8-4-1.7-5.8
	c-2.2-3.8-7.5-7.4-10.7-10.4S967.1,115.1,964.1,111.9z"/>
<path class="st21" d="M964.1,111.2c-2.7-2.9-4-6.8-5.2-10.6l-2.8-8.6c3.8,2.2,7.8-2.8,12.1-3.5c3.1-0.5,6,1.3,8.9,2.6
	c12.4,5.7,28.5,2.9,38.5,12.1c1.4,1.2,2.4,2.7,3.1,4.3c0.5,1.6,0.7,3.2,0.6,4.9c0.1,4.4-0.4,8.8-1.3,13.1
	c-2.4,9.6-8.7,17.6-14.8,25.4c-1.2,1.5-2.5,3-4.3,3.4c-3.6,0.8-6.3-3.1-7.7-6.5c-1.8-4.5-3.2-9.2-4-14c-0.2-2-0.8-4-1.7-5.9
	c-2.2-3.8-7.5-7.4-10.7-10.4S967.1,114.4,964.1,111.2z"/>
<ellipse class="st17" cx="986.5" cy="132.2" rx="2.1" ry="4.5"/>
<path class="st7" d="M999,252.8c0,0-1.4,4.2-8.3,3.5c-6.9-0.7-27.1-2.1-27.1,0"/>
<path class="st22" d="M943.8,488.1c-0.9-0.7-1.6-1.8-2-2.9c-0.2,0.9,0.4,2.1,2,3.6c9,8.3,61.9,9.7,61.9,9.7s0-0.2,0-0.7
	C1005.3,497.9,952.8,496.5,943.8,488.1z"/>
<path class="st22" d="M902.1,441.6c-10.4,2.8-55.6-15.3-57.7-17.4c-0.3-0.3-0.5-0.6-0.6-1c-0.2,0.8,0,1.8,0.6,2.4
	c2.1,2.1,47.3,20.2,57.7,17.4c5.4-1.4,6.6-8.2,6.5-14.4C908.4,434.4,907,440.2,902.1,441.6z"/>
<path class="st23" d="M735.1,159c0,0-60.5-17.9-64.5,33.1s16,135,0,162s-73.1,66-43,69.5s45,8.5,36,26.5c-9,18-56,35-46,48
	s15,29,5,45s-45,26-39,37s28,17,17,29s-42.9,39.3-30.4,39.2"/>
<linearGradient id="SVGID_6_" gradientUnits="userSpaceOnUse" x1="355.6566" y1="92.4995" x2="355.6566" y2="485.1595" gradientTransform="matrix(1 0 0 -1 -37.66 730.949)">
	<stop  offset="0" style="stop-color:#808080;stop-opacity:0.25"/>
	<stop  offset="0.54" style="stop-color:#808080;stop-opacity:0.12"/>
	<stop  offset="1" style="stop-color:#808080;stop-opacity:0.1"/>
</linearGradient>
<path class="st24" d="M505.5,494.9c-2.4-13.5-3.9-27.2-4.5-41l0,0c-1-23.3-16.4-43.4-38.7-50.3c-4-1.2-8.3-2.4-13.1-3.4
	c-42.1-9-54.9-1.1-56.4-0.1c-1.2-2.3-2.3-4.6-3.2-7c-0.1-0.2-0.1-0.5-0.2-0.7c8.3-8.9,13.4-20.3,14.4-32.5c7-7.1,11.1-15.7,11.1-25
	c0-8-3-15.4-8.4-21.9v-12.5c0-30.2-24.5-54.7-54.7-54.7h-4.4c-30.2,0-54.7,24.5-54.7,54.7v13.6c-4.8,5.9-7.5,13.3-7.6,20.9
	c0,9.1,3.9,17.5,10.7,24.5c0.9,12.6,6.2,24.5,15,33.5c0.3,2,0.6,4.3,0.9,6.6l-75.4,15.9c0,0-29.1,1.2-47.8,39.8
	C172.8,488,141.3,572.1,132,597.1l0,0c-1.7,4.5-2.6,7.1-2.6,7.1s0.3-0.3,0.9-0.8l-0.9,2.4c0,0,0.5-0.5,1.3-1.2
	c-1.3,10.5-1.5,28.4,12.2,30.7c11.5,1.9,41.1,2.7,63.5,3l0,0h1.6c14.8,0.2,26.1,0.2,26.1,0.2v-0.2h240.7v-2.5c0-2.2-0.5-4.5-1.3-6.5
	l0.3-0.4c1.3,1.7,2.1,3.7,2.5,5.8c0,0.2-0.1,0.4-0.1,0.6l0.1-0.4c0.1,0.7,0,1.3-0.1,2c0,0,30.9-79.5,30.5-127
	C506.7,504.9,506.4,499.8,505.5,494.9z M313.1,410.3c-0.4-2.3-0.7-4.6-0.8-6.9v-0.1C312.6,405.6,312.8,408,313.1,410.3z
	 M219.5,581.2v19l-11.9,2.5L219.5,581.2z"/>
<path class="st20" d="M348.5,253.4L348.5,253.4c30.2,0,54.7,24.5,54.7,54.7c0,0,0,0,0,0v23.3l0,0H293.8l0,0v-23.3
	C293.8,277.9,318.3,253.4,348.5,253.4L348.5,253.4z"/>
<ellipse class="st20" cx="348.9" cy="339.1" rx="62.4" ry="42.9"/>
<path class="st17" d="M308.9,380.6c0,0,13,68.1,0,86.5s39.8,25.6,39.8,25.6l54.7-19.9l7.6-49c0,0-33.3-18.8-26.4-56.6L308.9,380.6z"
	/>
<path class="st17" d="M470.3,610.1c0,0,3.4,14.9-15.3,17.6c-11.1,1.6-22.3,1.5-33.4-0.4l-4.1-37.5h43.6L470.3,610.1z"/>
<path class="st17" d="M139.3,591c0,0-8.3,33.6,10.5,36.7s87.6,3,87.6,3V591l-31.2,6.7l-29.3-28.1L139.3,591z"/>
<path class="st7" d="M312.9,402.6l-73.3,15.5c0,0-27.9,1.1-45.9,38.3s-57,143.1-57,143.1s33.3-33.7,72.3,2.3l26-47l-5.7,74.6h201.6
	v-35.2c0,0,42.1,22.6,39,35.2c0,0,36-92.8,28.3-134.9c-2.3-13-3.8-26.2-4.3-39.5l0,0c-0.9-22.3-15.8-41.7-37.2-48.3
	c-3.8-1.2-8-2.3-12.6-3.2c-43.2-9.2-54.3,0-54.3,0s-8.4,27.2-8.2,39.6c0.2,15.9-22.6,26.4-22.6,26.4s-33.7-8-35.2-14.5
	S310.2,410.3,312.9,402.6z"/>
<path class="st19" d="M312.9,401.1l-73.3,15.5c0,0-27.9,1.1-45.9,38.3s-57,143.1-57,143.1s33.3-33.7,72.3,2.3l26-47l-5.7,74.6h201.6
	v-35.2c0,0,42.1,22.6,39,35.2c0,0,36-92.8,28.3-134.9c-2.3-13-3.8-26.2-4.3-39.5l0,0c-0.9-22.3-15.8-41.7-37.2-48.3
	c-3.8-1.2-8-2.3-12.6-3.2c-43.2-9.2-54.3,0-54.3,0s-8.4,27.2-8.2,39.6c0.2,15.9-22.6,26.4-22.6,26.4s-33.7-8-35.2-14.5
	S310.2,408.7,312.9,401.1z"/>
<path class="st7" d="M387.8,397.8c-3.1-8.7-3.8-18.1-2-27.2L310,384c0,0,1.1,5.7,2.3,14.3c19.9,20.7,52.8,21.3,73.5,1.4
	C386.5,399.1,387.1,398.4,387.8,397.8L387.8,397.8z"/>
<path class="st17" d="M400.7,358.8c0.3,28.7-22.7,52.3-51.4,52.6S297,388.8,296.7,360c0-0.4,0-0.8,0-1.3c0-19.9,11.3-38,29.2-46.8
	c1.6-0.8,3.2-1.4,4.8-2.1c8.6-3.1,17.8-4,26.8-2.5l0,0c23.7,4,41.6,23.8,43.1,47.9C400.7,356.5,400.7,357.6,400.7,358.8z"/>
<g class="st25">
	<path d="M330.5,311.2L330.5,311.2c-1.6,0.6-3.2,1.3-4.7,2.1c-17.9,8.7-29.2,26.9-29.2,46.8c0,0.4,0,0.8,0,1.3
		c1.6,0,3.2-0.4,4.7-1.1c12.7-5.9,20.3-24,23.3-36.7C325.7,318.9,326.7,313.8,330.5,311.2z"/>
	<path d="M370.3,312.7c-4.1-1.9-8.5-3.2-12.9-4c3.7,0.8,6.9,2.9,9.3,5.8c1.2,1.6,2.1,3.3,2.8,5.1c-14-6.1-30-5.8-43.8,0.9
		c3.3,7.2,13.4,11.1,20.1,13.7c7.4,2.9,14.9,5.5,22.5,7.8l-6.7-5.4l15.1,2.4c0.2-3-0.2-6-1-8.9c2.9,2.3,6.7,3.1,9.9,5.1
		c5.9,3.7,8.3,10.9,11.5,17c0.7,1.7,1.9,3.2,3.4,4.3C399.3,337.5,387.7,320.6,370.3,312.7z"/>
</g>
<path class="st21" d="M330.5,310L330.5,310c-1.6,0.6-3.2,1.3-4.7,2.1c-17.8,8.7-29.1,26.8-29.2,46.7c0,0.4,0,0.8,0,1.3
	c1.6,0,3.2-0.4,4.7-1.1c12.7-5.9,20.3-24,23.3-36.7C325.7,317.8,326.7,312.7,330.5,310z"/>
<path class="st21" d="M370.3,311.5c-4.1-1.9-8.5-3.2-12.9-4c3.7,0.8,6.9,2.9,9.3,5.8c1.2,1.6,2.1,3.3,2.8,5.1
	c-14-6.1-30-5.8-43.8,0.9c3.3,7.2,13.4,11.1,20.1,13.7c7.4,2.9,14.9,5.5,22.5,7.8l-6.7-5.4l15.1,2.4c0.2-3-0.2-6-1-8.9
	c2.9,2.3,6.7,3.1,9.9,5.1c5.9,3.7,8.3,10.9,11.5,17c0.7,1.7,1.9,3.2,3.4,4.3C399.3,336.3,387.7,319.5,370.3,311.5z"/>
<path class="st7" d="M290.7,350.2c0,0,53.6-66.6,115.5,0l-5.4-14.9c0,0-29.1-42.5-49.7-33.3s-40.9,15.7-40.9,15.7L290.7,350.2z"/>
<path class="st20" d="M290.7,349.1c0,0,53.6-66.6,115.5,0l-5.4-14.9c0,0-29.1-42.5-49.7-33.3s-40.9,15.7-40.9,15.7L290.7,349.1z"/>
<path class="st7" d="M246.7,492.5c0,0-11.5,30.6,4.6,58.1s-14.1,39-14.1,39"/>
<path class="st7" d="M432.6,465c0,0,19.9,25.2,6.9,47.8c-13,22.6-12.2,76.9-12.2,76.9"/>
<path class="st18" d="M229.1,612.3h221.1c10.1,0,18.4,8.2,18.4,18.4l0,0l0,0H210.8l0,0l0,0C210.8,620.5,219,612.3,229.1,612.3z"/>
<path class="st18" d="M262.4,486H417c21.5,0,39,17.5,39,39v91.5l0,0H223.4l0,0V525C223.4,503.5,240.8,486,262.4,486z"/>
<circle class="st26" cx="339.5" cy="557" r="13.8"/>
<path class="st27" d="M293.8,319c0,0,52.6-52.6,109.4-1"/>
<rect x="411.2" y="315.7" class="st28" width="5.3" height="30"/>
<path class="st13" d="M404.1,335.1L404.1,335.1c10.1,0,18.2,8.2,18.2,18.2v1.2c0,10.1-8.2,18.2-18.2,18.2l0,0l0,0V335.1L404.1,335.1
	z"/>
<path class="st28" d="M404.7,333.3L404.7,333.3c2.3,0,4.1,1.8,4.1,4.1v32.9c0,2.3-1.8,4.1-4.1,4.1h0c-2.3,0-4.1-1.8-4.1-4.1v-32.9
	C400.6,335.1,402.5,333.3,404.7,333.3z"/>
<rect x="279.9" y="316.3" class="st28" width="5.3" height="30"/>
<path class="st13" d="M292.3,373.2L292.3,373.2c-10.1,0-18.2-8.2-18.2-18.2v-1.2c0-10.1,8.2-18.2,18.2-18.2l0,0l0,0V373.2
	L292.3,373.2L292.3,373.2z"/>
<path class="st28" d="M291.7,375L291.7,375c-2.3,0-4.1-1.8-4.1-4.1V338c0-2.3,1.8-4.1,4.1-4.1h0c2.3,0,4.1,1.8,4.1,4.1v32.9
	C295.8,373.2,293.9,375,291.7,375z"/>
<path class="st13" d="M410.6,283.6c-7.2-14.9-22.8-32.9-56.4-34.3l0,0h-0.4l0,0l-11.9,0.6v0.1c-33.4,1.5-48.9,19.5-56,34.3
	c-4.7,10.1-7.3,21-7.4,32.1l4.1-0.1l4.1-0.1c0.2-9.9,2.4-19.7,6.6-28.6c9.1-18.6,25.7-28.5,49.6-29.4l0,0l10.5-0.6l0,0
	c23.8,0.9,40.5,10.8,49.6,29.4c4.2,9,6.5,18.7,6.7,28.6l4.1,0.1l4.1,0.1C417.8,304.7,415.3,293.7,410.6,283.6z"/>
<rect x="37.6" y="630.9" class="st29" width="560.8" height="150.6"/>
<rect x="37.6" y="641" class="st7" width="560.8" height="19.5"/>
<rect y="628.7" class="st29" width="636" height="19.5"/>
<path class="st23" d="M435.5,580.1c0,0,24,44,84,32c60-12,31,111,31,111s-9.8,58.7-2.9,58.3"/>
</svg>
